<?xml version="1.0" standalone="no"?>
<svg viewBox="-9.262415856411621 -20.89711337249838 38.29630175412674 32" style="display: block; height: 100%; width: 100%; background-color: rgba(96.23%,97.19%,100.01%,1); transform: translate(2.846083776745843px, -20.393392050266215px)scale(1.5151422381401063)" id="MainSVG" xmlns="http://www.w3.org/2000/svg"><path d="M 0 0 l10 0l-0.4087551314336616 -9.991642469710705l-9.700593111013466 2.428681390087649l4.347457639146891 9.005532303857631l7.9354080228930215 -6.085170458598927l-7.569447379548549 -6.534788930657638l-4.862008176652442 8.738471061356488l9.543553867548903 2.986733931436208l0.9870678384235738 -9.95116561425594l-9.944330039272678 1.0537077725911697l3.050598437749022 9.523331831433955l8.705704773860138 -4.9204374186030275l-6.585349440271133 -7.525501494885286l-6.031875240167429 7.975994050089l9.034453516978328 4.287032732503677l2.363643378886578 -9.716644995956456l-9.994156495674616 -0.3418127264524639l1.6942537828138302 9.855430184391803l9.306243751917211 -3.659757810279507l-5.472839811894006 -8.369469779702175l-7.084123140864426 7.057988334155077l8.349184924049414 5.503736104141074l3.694128815632978 -9.292653673386848l-9.849100884180762 -1.7306680135802228l0.3048718544601215 9.995351577226188l9.725314686372926 -2.3277143834712826l-4.2536119887131525 -9.050236739968504l-7.998233464116279 6.0023546590892565l7.501110553169425 6.6131188155914975l4.952580212990903 -8.68745930833008l-9.511991731394643 -3.0857759643045934l-2.694389474659618 9.630174731480393l9.976632812007026 0.6832259760758329l-1.3563925987141237 -9.9075829099813l-9.425900823884206 3.339519974232683l5.18356262714656 8.5516477061704l7.321234554019629 -6.811719651088777l-8.15618136988457 -5.78590575982256l-4.009604878669597 9.160953482959563l9.784189122588385 2.06631149961063l0.03696013498616752 -9.999931697187826l-9.799195934511065 1.9939305497087418l3.9417777791948043 9.190342101328223l8.198727814047777 -5.725457381830675l-7.270682458702018 -6.8656519417112l-5.246634585813777 8.513097293167904l9.400957645354056 3.4091047725552692l1.4295921607869002 -9.897285802371105l-9.98141063047161 0.6094602742659697l2.623129835780454 9.649828488871623l8.916349149796181 -4.527550975850953l-6.243408137740889 -7.811520647453404l-6.38135700989515 7.699239099564452l8.834411241350244 4.685421861338042l2.794347709301897 -9.60164677956439l-9.968991797827192 -0.7868942335880812l1.2533319061739419 9.921147067399334l9.46010523126873 -3.241359130568842l-5.094389846778195 -8.605067814319842l-7.3916455159557355 6.7352488125125305l8.943380196627238 4.473918937416697l4.10461459134021 -9.11877947186777l-9.762181598864109 -2.1679046175510095l-0.14090549601243685 9.999007232780336l9.819393031623274 -1.891962074278524l-3.846032984477622 -9.230819588872386l-8.257799880838375 5.639923858353563l7.198922516760467 6.940858347328459l5.334843124987456 -8.45809959930563l-9.365012750025544 -3.5066417256199687l-1.532395297192903 9.881890742825538l9.987206581968577 -0.5056725116946147l-2.522680012046617 -9.67657406093812l-8.962930439685563 4.434622637086268l6.161871574381981 7.8759976320986365l6.46104434421881 -7.632490156039386l-8.78522988554841 -4.777000717821492l-2.894004000906065 9.572081322405262l9.960273584965051 0.8904774633012631l-1.1501357849459661 -9.93363919599392l-9.493287427671817 3.1428480420803413l5.004666592486146 8.65755810249363l7.461257774174227 -6.658050197116619l-8.034138540182816 -5.9542101001853425l-4.199180780180241 9.075620131724602l9.739119223318506 2.2692634827159113l0.24483563150560436 -9.997002326374904l-9.838529094936955 1.7897891630242355l3.7498726069465516 9.270299640878491l8.315979651664568 -5.553780913314897l-8.173519355427871 -5.7613871026382135l-5.422475208075998 8.40218796610747l9.328055918926728 3.6037997687685213l1.6350328507367302 -9.865427896295817l-9.991923366586065 0.40183010871685765l2.4219576003078997 9.702274031499563l9.008543240779384 -4.341215115495668l-6.079669190439097 -7.939623576393632l-6.540033530866648 7.564916484346665l8.735099242371447 4.868063395840462l2.9933475811187895 -9.541481554696329l-9.95047911546646 -0.9939644725370361l1.046815385879553 9.945057945929015l9.525443827593651 -3.043997353375657l-4.914402559310122 -8.709112898857502l-7.530063806727602 6.580132146591815l7.971811612487083 6.037401727151845l4.293293226847057 -9.031480126109408l-9.715004487954886 -2.37037714278054l-0.34873931130245184 9.993917194611544l9.856602056706189 -1.6874228562323448l-3.653307037204177 -9.308777991332398l-8.373260839915456 5.4670378548843335l7.053076833802363 7.089013131351953l5.50952136600105 -8.345368435100868l-9.290091145425293 -3.700568403595661l-1.737493730925006 9.847899041673625l9.995560474652255 -0.2979442860159818l-2.3209734841171596 -9.726925623547507l-9.053182624389747 4.247338504222094l7.219733078294518 6.9192090789468095l6.6183160346678624 -7.496525386154459l-8.684024728682346 -4.958600055623917l-3.0923677153767537 9.50985078289326l9.939609447672106 1.0973440790141467l-0.9433818732528987 -9.955402083352427l-9.556570956376783 2.9448177457587645l4.8236075007236465 8.759726632661694l7.598056178785038 -6.501503080367379l-7.908623291268444 -6.119940983114648l-4.386941762027078 8.986364224567284l9.68983999848922 2.4712346719157283l0.45260530809842614 -9.989752170853945l-9.873609964058401 1.584874215086688l3.5563467096361063 9.346250482458752l8.429637256076427 -5.3797040560767195l-6.979006852130456 -7.161945500903797l-5.5959721929963555 8.287647145916118l9.251122531802084 3.796937173773594l1.839766866354797 -9.829306073038069l-9.998117513159702 0.19402626896699132l2.219738575305717 9.750526173355967l9.096843767011308 -4.153002947095935l-5.913302561277249 -8.064294936247801l-6.695883396812203 7.4273242514579l8.632011863333965 5.048600914239675l3.1910537040665616 -9.4771924248568l-9.927665756103151 -1.2006051120567696l0.8398464235666714 9.96467049052914l9.586665450581581 -2.8453199360749295l-6.10348403622374 -7.921330861639473l-7.665227543435721 6.4221714947013355l7.844580404336343 6.201818949300461l4.48011626653467 -8.94027730209368l-9.663628474068584 -2.5718251719685132l-0.5564223986608157 9.984507705153447l9.889550979205406 -1.482154320473198l-3.4590021012834633 -9.382713065170254l-8.485102808397926 5.291788953739332l6.904182754381685 7.234103986956404l5.681818347624113 -8.229030335622902l-9.211154288807796 -3.8928956661818903l-1.9418412059098995 9.80965099945102l9.999594205807794 -0.09008728642364572l-2.118263812804263 -9.773073130769255l-9.13952195084248 4.058218637538945l5.829156292792277 8.125326880452269l6.772727235764011 -7.357320557780555l-8.579066266572678 -5.138056246651523l-3.2893948836808984 9.44351000948344l9.914649331334319 1.3037364138014822l-0.7362202243363402 -9.972862165962095l-9.615724058349665 2.745514675552734l4.64046360705291 8.858109138615164l7.731570642482732 -6.342145961762402l-7.77968987184026 -6.283026778391612l-4.57280667240553 8.893224338607649l9.636372746977342 2.672137773639742l0.6601793650414607 -9.978184364200406l-9.904423379641973 1.3792742717826152l4.849890734812204 8.745202105176457l8.53965150355375 -5.20330204753214l-6.82861262566847 -7.3054807924298295l-5.76705055378433 8.1695243380564l9.17019073520802 3.988433512032634l2.0437057199549953 -9.788935944740022l-9.999990393032617 -0.013861430494870743l2.0165601614608692 9.794564059477528l9.181212564295224 -3.962995817462785l-5.744380155248834 -8.185480843052739l-6.848839248167861 7.286521869366446l8.525193659431086 5.226956386770031l3.3873806279707668 -9.408807176324125l-9.900561579854436 -1.406726840403004l0.6325144728833165 9.979976224500394l9.643743639755293 -2.645412748642327l-4.548134561568729 -8.905867280049936l-7.7970783072273475 6.261435128703701l7.713958705521957 6.363555695482049l4.665002963984612 -8.845210418413728l-9.608075762331096 -2.7721616376585496l-0.7638649957889233 9.97078283126297l9.918225558331956 -1.276245185711093l-3.263202156869563 -9.452592855053148l-8.593277447288612 5.114252898901355l6.752304631715569 7.376068204708554l5.851659601717188 -8.109135583132831l-9.128236297316555 -4.083540387990862l-2.1453494015274375 9.767163147268805l9.999306032024187 0.11780864961752362l-3.487162282574827 -9.372283564584862l-9.221911102493337 3.867344776162336l5.658983309126294 8.24475032411716l6.92421120974581 -7.214935836362681l-8.470399863109826 -5.315291728497041l-3.485000349093707 9.373087675190963l9.885404023914464 1.509565263238294l-0.5287403751250125 -9.986011897434965l-9.670721167144633 2.5450249718501294l4.45531406773591 8.952663098644699l7.861743459243624 -6.180047716728414l-7.6473940079578195 -6.443396999025502l-4.756695179008342 8.79624072965257l9.578740577758461 2.871885955953598l0.8674680871599243 -9.962303906113238l-9.930956023881944 1.1730781950590288l3.1647679779570326 9.486002511368936l8.645974845055074 -5.024651130046233l-6.675267017977705 -7.445858596474891l-5.935636348998169 8.047870596154716l9.085295508517126 4.178206017290021l2.246761267526622 -9.744334959695411l-9.997541196731085 -0.2217431389351242l1.8125101741158869 9.834368656336125l9.26161316775924 -3.771275849203906l-5.572974981974639 -8.303128919286078l-6.9988349761860285 7.142570193992855l8.41469079834857 5.403052726763631l3.5822434987578693 -9.336355365752043l-9.869178301363007 -1.6122405701090583l2.045963612661975 9.78846427667094l9.696653725462932 -2.4443621925700456l-4.362012155266143 -8.998491537880692l-7.925559111143272 6.09799252014742l7.580002971791394 6.5225420617757335l4.847873409681112 -8.746320563740323l-9.548370363070667 -2.9712999528209427l-0.9709774443299766 9.952748504940855l9.942613400702406 -1.0697844475280724l-3.065991830271252 -9.518387158374571l-8.697738002639655 4.934506422879388l6.59750810874862 7.514844426533141l6.018971721525974 -7.985735997105755l-9.04137300877354 -4.272420170842434l-2.347930359900761 9.720453848717984l9.994696077852456 0.32565366781401084l-1.710185886720812 -9.852678023403636l-9.300314470089164 3.6747994173083907l5.486364467417389 8.360610320464643l7.072702484022883 -7.069432761721165l-8.35807248478625 -5.490229898561536l-3.679099569361797 9.29861421711439l9.851886165469331 1.7147416664425017l-0.3210320000763612 -9.99484559435147l-9.721538512569492 2.343435287911356l4.268238905890787 9.043347645769249l7.988518367330675 -6.015278405429l-7.51179287895618 -6.600982331718759l-4.938527803745845 8.695455314796876l9.516968399919051 3.070392886088392l-0.5587254421374238 -9.984379093379234l-9.95319642915634 0.9663751045165907l2.966884387061661 9.549743296749382l8.74856132677814 -4.843828517980578l-6.519036306261582 -7.5830182406244635l-6.10165671450299 7.922738499935523l8.996473544128309 4.366172668344604l2.448845746830944 -9.695522394808233l-9.990770982817418 -0.4295290082095459l1.607676805314361 9.869922760065258l9.33801082761671 -3.5779259052296037l-5.399161124147386 -8.417188316504243l-7.1458057515081865 6.995531442407541l8.30055104031061 5.576813823967809l3.7755580951298446 -9.259868307395063l-9.83352948473392 -1.8170574764901224l0.21712016669934706 9.997642663808927l9.745372839540451 -2.2422551635233905l-4.174004452271465 -9.087226575386904l-8.050614424747991 5.931914310240799l7.442771099888793 6.67870933299692l5.028648565548599 -8.643650479063l-9.484538081440451 -3.169154048276268l-1.1776702286200533 9.930412520767804l9.962703965695383 -0.8628613399136098l-2.8674563573758105 -9.580067538308123l-8.798439325759936 4.752627213544213l6.4398600897814955 7.650372672232346l6.183682393408329 -7.858884911833983l-8.950601966189808 -4.459453379377245l-0.9410855034725935 9.955619421972383l9.985766335751826 0.5333579358794017l-1.5049940065078602 -9.886101002942233l-9.374698167064707 3.4806657806278434l5.311374374915532 8.472856793873637l7.218136879473707 -6.920874221453643l-8.242132680397145 -5.662795147162695l-3.8716086532430327 9.220121823280518l9.814110242686574 1.919176944524526l-0.11318487241853864 -9.99935943871684l-9.768154130959347 2.14083275241712l4.079318976905204 9.13012358539911l8.111840573610268 -5.847909242484038l-7.372945092732534 -6.755714666824764l-5.118225957097021 8.590911654306444l9.451082911890573 3.267572767754379l1.2808313215663367 -9.917634351280281l-9.97113498298336 0.7592543388914174l2.7677184849022085 9.60935660636708l8.847366610021504 -4.660912364320595l-6.359988014688653 -7.71690044337859l-6.265039894963234 7.794182132495947l8.903763231608055 4.552252224499923l2.649871815332727 -9.642519347261132l-9.979682677432457 -0.6371292315963564l1.4021485856836482 9.901211003895703l9.410372524185366 -3.3830295529387784l-5.223013705512622 -8.527609737319557l-7.289688052184674 6.845469165940053l8.182823717437477 5.748164577440585l2.419719578514318 -9.702832429829677l-9.793630537672076 -2.021089036034032l0.009237347954586448 9.999995733569229l9.789879925195397 -2.039179013783775l-3.984192711024137 -9.172034040572578l-8.172190198130442 5.763272279320205l7.302322402531528 6.831990012396547l5.207250299112605 -8.53724453921707l-9.416606506265317 -3.365638409895173l-1.3838540143774913 9.903784532535596l9.978488570007315 -0.6555652966969598l-2.667681546809393 -9.637607336098137l-8.895337892728703 4.568693880551078l6.2794287115543215 7.782594365409727l6.345720428088802 -7.728637153375521l-8.855962401539097 -4.644559176340191l-2.74996077504714 9.61445348086422l9.972520665228563 0.7408316823606196l-1.2991516557961824 -9.915251130215616l-9.445030044188625 3.2850277722378847l5.134088663744345 8.58144123051669l7.360451538184343 -6.769324423754542l-8.122630560057276 -5.832912890213912l-4.062444396764998 9.13764441873247l9.77209258262346 2.1227827389150202l0.09471117465032389 -9.999551479611291l-9.810547874669487 1.9373049318106905l3.8886359334899945 9.21295341227613l8.231656777234244 -5.678012566190176l-7.230910660415412 -6.907527127785366l-3.8439036719797812 9.231706481498442l9.381112589910185 3.4633403782228234l1.4867271749439643 -9.888864561074904l-9.98476393217594 0.5518054174421363l2.5673563525814247 9.664816674870755l8.942347990348079 -4.475981726897204l-6.1981908852081204 -7.847447339773805l-6.4257152748559045 7.662257056930648l8.807204641098147 4.736364260677092l2.8497525879503867 -9.58534872539701l-9.964281073030854 -0.8444540826114231l1.1960143461712145 9.928219864797146l9.478666982158693 -3.186671028100428l-5.044608858399611 -8.634345456706964l-7.430419691129382 6.692448222711683l8.06155971242378 5.9170309280099085l4.1572089614314125 -9.094922410388905l-9.74949870482289 -2.2242470646618355l-0.19864946324616067 9.99802672484686l9.830155746107842 -1.8352215144943589l-3.792658969683413 -9.252877278970036l-8.290233885264792 5.59213931582605l7.158717582774776 6.982317850833724l5.383601417269235 -8.42714873370446l-9.344604998117722 -3.5606681155582693l-1.5894396873138787 9.872876049074634l9.989960391405429 -0.44798591289314044l-2.4667537428498547 -9.690981682581812l-8.988391823206957 4.382785921363983l6.116283313797464 7.9114523587873995l5.181589939011686 -8.55284313570247l-8.757495218801454 -4.827657557518933l-2.9492364710453938 9.555208225771729l9.954964791167862 0.9479852354378681l-1.0927478013032184 -9.940115806304622l-9.51127970345868 3.0879699484572343l4.954583958212268 8.686316699328067l7.4995849506161285 -6.614848869663772l-7.999617773542978 -6.000509601460138l-4.251524319186423 9.051217650867006l9.725851345650184 2.3254710495541517l0.30256628678871933 -9.995421634033198l-9.848701420783343 1.7329397924510102l3.696272190388219 9.291801326683792l8.347915192676952 -5.505661807255629l-7.085750970427366 -7.056354100035488l-5.4709091378030585 8.370731939675466l9.307087675713099 3.657611105159944l1.6919804528942008 -9.855820724172286l-9.99407738619276 0.3441180012589729l2.365884588222342 9.716099531973311l9.033464416042333 -4.289116534217382l-6.033714847839004 -7.97460250639285l-6.583613408991155 7.5270202923169975l8.706839505997026 4.918429202175167l3.048401674608426 -9.52403523881787l-9.944572826309749 -1.0514139537887697l0.989363179651182 9.950937669322952l9.542864684123366 -2.9889351984462693l-4.864023690816344 -8.737349342631171l-6.402676960734285 7.6815185827076125l7.93681143654656 6.083339890282616l4.34538027879092 -9.006534862681372l-9.701153060319017 -2.426443755841659l-0.4064504165532081 9.991736488663205l9.866182894744465 -1.6304708177246576l-3.5994860106708297 -9.329721349482256l-8.404694466721253 5.418589384799809l7.012018707775162 7.129627875409145l5.557625699648648 -8.313410646816676l-9.268564676627854 -3.7541588718601693l-1.794338391649972 9.837700429279751l9.997114471676365 -0.24021290597924766l-2.264759788108045 -9.740167508937862l-9.077560898538474 4.194983686896217l5.950494409262326 8.036890958905552l6.661499634687933 -7.458178237146961l-8.655242976284216 -5.008669386322355l-3.147237483350634 9.491833132930266l9.933106301359517 1.1547290616815118l-0.8858716524328535 -9.960684284496518l-9.573418511239968 2.8895774792602316l4.772937841694935 8.787437872287718l7.6354769821906 -6.457514324756665l-7.873147487968697 -6.165512844256527l-4.438766698646023 8.96087887402743l9.675406517600807 2.5271542729259338l0.5102906273475509 -9.986971686934996l-9.882598279031813 1.5278256625929063l3.502310888754841 9.366633249920127l7.479687104439149 -6.6373398903240375l-6.937528761952434 -7.2021312593622415l-5.643741732654226 8.255191048976219l9.229040163461844 3.8503009831970485l1.8965024433015811 -9.81851712238417l-9.99907131968419 0.1362818545114761l2.1633902695398675 9.76318301281197l9.120676505853178 -4.100397550918434l-5.8666309904458425 -8.098310985751315l-6.73866605252708 7.388530289070967l8.602711204922285 5.098368359063965l3.245733217575909 -9.458605387705122l-9.920566455331684 -1.2579193954096322l0.7822844024176787 9.969354598655523l9.602937883316923 -2.789907526990225l-4.681336253122829 -8.836576875985289l-7.7021890704747555 6.377796133670253l7.808632807012713 6.247019584189308l4.531673487888944 -8.914254618259704l-9.648614499536354 -2.6275917185393967l-0.6140756987253386 9.981127743708873l9.897945799882233 -1.4250154183705088l-3.4047573248909675 -9.402533039484695l-8.515522471717095 5.242697495915741l6.862289181964847 7.2738564175469005l5.729247931558127 -8.196079437068489l-9.188518407033465 -3.9460270505417476l-1.9984615685198734 9.798272876336375l9.999947718769166 -0.03233607711784069l-2.061786985993756 -9.78514355665704l-8.38838484176056 5.443803793903824l5.78213365324517 8.15885595019361l6.81510432429695 -7.3180839738929615l-8.549249868227955 -5.187516427984039l-3.3438782343348628 9.424355593564027l9.9069546432184 1.3609738047491446l-0.6786126227184007 -9.976947674929805l-9.631419610640627 2.689936111465686l4.589228823103008 8.884761044012414l7.768068899280135 -6.297388790287345l-7.743274364807755 -6.327851302876124l-4.624090607483336 8.866667133358757l9.620779901135219 2.727745239921173l0.7177944161982488 -9.974205290451696l-9.912223798920476 1.3220511942109172l3.3068358602224484 9.437416839026815l8.569559227156633 -5.153897035472731l-6.786308097819736 -7.344795599706384l-5.814135056994251 8.136082198394412l9.14700378591815 4.041326730221034l2.1002047501189987 -9.776969878626895l-9.999743574232053 -0.07161319434824717l1.9599609162051075 9.806046767528107l9.203946566014846 -3.9099063428608543l-5.697011528013921 -8.218519310050716l-6.89080619046565 7.246846903684406l8.494864742962072 5.276103960194486l3.4416619285748635 -9.389087451365993l-9.892272335843034 -1.4638811541633525l0.5748675155816212 9.983462692850063l9.108322111073987 -4.127767958706099l-4.4966255042971115 -8.931985169832334l-7.833109349966634 6.216300983017577l7.6770792236555385 6.407999266051493l4.716008071304087 -8.818121561386796l-9.591905730062898 -2.8276040149898156l-0.8214355724478155 9.966205075168649l9.9254307333384 -1.2189441159058678l-3.20855707564601 -9.471280879180066l-8.622669999498315 5.0645396710611035l6.709593719647614 7.414941140512533l5.898393936490453 -8.075205815951236l-9.10450078597526 -4.136189724634967l-2.201720994246887 9.754610431149596l9.998458908131676 0.1755547276558415l-1.857923062982476 -9.825890386730244l-9.244092021121528 3.8140218542946647l5.611273812617136 8.277294618402632l6.965763471073554 -7.174826775961725l-8.43956170570538 -5.364121383375967l-3.5390737342859566 9.352804772007552l9.876521119701232 1.566630324006117l-0.4710602911773363 -9.988898948436505l-9.685257933119596 2.489132131676404l4.403536302949998 8.978244150645573l7.8973033945931 -6.134541473798045l-7.610054536267212 -6.487454813333101l-4.807415947216326 8.768623147932072l9.56199510631585 2.927157253512652l0.9249879685364635 -9.957127962322406l-9.623298452045821 2.7188466126011015l3.1099315906685616 9.50412150076806l8.67484904986151 -4.9746350581843535l-6.632154336815017 -7.484285460394049l-5.98201546545964 8.013456867732033l9.061013999863357 4.230605783369591l2.3029993315731727 -9.731196949952945l-9.996093859282539 -0.2794772914101283l1.755684452018655 9.844672270062624l9.283238606538456 -3.717725241874921l-5.524929771437403 -8.335175524287695l-7.03996806661716 7.102031372854576l8.383346732223542 5.451559186812234l3.636103125642571 -9.315511476010984l-9.859702696789514 -1.6692102117233756l0.36720216638761094 9.993255854274935l9.710608710778846 -2.388321265271067l-4.309971277808542 -9.02353298794133l-7.960644096676712 6.052119097146571l7.54220754499049 6.5662093591575745l4.898304358148696 -8.718177241542035l-9.531051261884338 -3.0263941982717584l-1.0284404151175652 9.946974932739742l9.948625815903954 -1.0123459760029618l-3.010970062259692 -9.535935155199823l-8.72609074004273 4.884192911478878l6.5539983170288245 7.552821066355494l6.0649906081836 -7.9508420260149l-9.016548126543945 -4.324564704304569l-2.4040288184744942 9.706731964978951l9.921725558110662 -1.2487441489487177l-1.6532561306992997 -9.86239038805021l-9.321382092284194 3.6210269109250683l5.437988734373804 8.392155773388838l7.113411958924311 -7.028468560264932l-8.326225896821422 -5.538407922417806l-3.7327396181408963 9.277211593100663l9.841818884421338 1.7716097330528364l-0.2633043635945553 -9.996532939580206l-9.734910209321432 2.2872523289854456l4.215940539034715 9.067846788037592l8.023124611942528 -5.969042759207047l-7.473545581027069 -6.644254393708203l-4.988663483160563 8.666789293145433l9.499077540403222 3.1253041262262875l1.131781733644553 -9.935747083505523l-9.958611457708628 0.908877238352057l2.911683183700149 9.566718404853242l8.776389533124876 -4.793223003664248l-6.475134105432049 -7.620540552786967l-6.147310398789324 7.887368056642003l8.971107970773728 4.418056334715536l2.5047985382170146 -9.681218119789778l-9.988123752271761 -0.48722059614171426l1.5506491669092115 9.879042826163056l9.35851835676717 -3.5239373101762057l-5.350460095833757 -8.448229208709398l-7.186087212020568 6.954146287017153l8.268205371686724 5.624658205758887l3.8289727697317746 -9.237909261767653l-9.996888043497625 -0.24945830468080016l0.15937810946767564 9.998729850247106l9.758159802850702 -2.1859362438160757l-4.121454247113147 -9.111180762609916l-8.084738189063014 5.8853214367871285l7.4040760636404634 6.721581483834465l5.07848355850327 -8.614464855463279l-9.466077396790645 -3.2238763496711913l-1.2350007575787831 9.923445627844183l9.96752102247789 -0.8053102920373907l-2.812081683426354 -9.596467923446522l-8.825739994075526 4.701735164487227l6.3955702236913385 7.68743660226429l6.22896594221785 -7.823041818288465l-8.924698442585422 -4.511070572371189l-2.6052976021360013 9.654658171282108l9.982519555319454 0.5910188894313569l-1.4478746478363813 -9.894627785023179l-9.39464338723103 3.426466930638071l5.262353313717928 8.503389771238405l7.2579859729867575 -6.879072583999056l-8.209291426223068 -5.710300717067398l-3.924792181949026 9.197608728822498l9.802862935963555 1.9758234381421818l-0.05543463375079279 -9.999846348888612l-9.78035497913352 2.084383957465166l4.026522611753221 9.15353022920884l8.145478170387593 -5.800964176388197l-7.333806499354313 -6.798182273963271l-5.167754878675113 8.561209582408877l9.847094556869603 1.742047297885181l1.3380863335961415 -9.910071894988615l-9.975353547489368 0.7016563279778005l2.7121763238711614 9.625180496397599l8.874136790334223 -4.609739279659601l-6.315315269076129 -7.753501986339715l-6.3099484151853655 7.757870261721298l8.87732455675722 4.603597366624846l2.705515150812432 -9.627054989389247l-9.975836697943993 -0.6947533202179678l1.3449436787739857 9.909143580598975l9.42975328018824 -3.328626304465421l-5.1736779083982345 -8.557631500605297l-7.329100472807504 6.803255563294152l8.149490426372536 5.795326202248013l4.02018750103304 -9.156314348936352l-9.78179500925612 -2.077615555605045l-0.04851483195140041 9.999882314861546l9.801493339871731 -1.9826064431576118l-3.9311558907858846 -9.194890611765832l-8.205337992662002 5.715980093227887l7.262744481141264 6.874048487001826l5.2564677974701 -8.507029228476874l-9.397012217008223 -3.4199651158159794l-1.4410273227922274 9.895627330036548l9.982108186400145 -0.5979265464948126l-2.611977900300923 -9.652853021171492l-8.921574692388667 4.517245289790014l6.234377913529695 7.818729566322979l6.390249067136672 -7.691860429048287l-9.475715841125712 -3.195435697716236l-2.805440355246386 9.598411556770998l9.968075902261042 0.798412679485186l-1.2418673819203798 -9.92258864438722l-9.463844241841876 3.2304260038199892l5.08444346168914 8.610948535723956l7.399423027210709 -6.726703417305085l-8.088808833927807 -5.879725473878137l-4.11514841904957 9.11403058417042l9.759670111401729 2.1791831764704335l0.1524590553869647 -9.998837744279607l-9.821572600961307 1.8806146984553107l3.83536438905522 9.235257441087773l8.264311187737515 -5.630378370255106l-7.19089768760252 -6.949171925232007l-5.344612729020252 8.45192964812147l9.360954643671347 3.5174604701585253l1.54381260188595 -9.880113493794397l-9.987784209338205 0.494132156102417l2.5114972396489916 9.679482507615555l8.968048574339813 -4.424263189309791l-6.152766902732095 -7.88311229405268l-6.469859221190659 7.6250194529571l8.779704291758701 4.7871486867731425l2.9050624180271702 -9.568730968491387l-9.959238006862813 -0.9019857663284998l1.138656895177309 9.934961523582523l9.496912588495558 -3.1318766397281053l-4.994659615812277 -8.663335115426042l-7.468946037497877 6.649424417868419l8.891108882922437 4.576918486494787l4.209664675003539 -9.070762003493828l-9.736490633104605 -2.2805153258564816l-0.25638680487040366 9.996712750013794l9.84059059273915 -1.7784197440688003l-3.7391584573049643 -9.274626355339862l-8.322391383269828 5.544168257157796l7.118273882138121 7.02354447119617l5.432180148831415 -8.3959167951238l-9.323885573062553 -3.6145757455662766l-1.6464310644214701 9.863532062608606l9.9923810029813 -0.39028437229589547l-2.4107451993458366 -9.70506607828257l-9.01355341445573 4.330803025393034l6.070491055155152 7.946643212657864l6.548770275077943 -7.557354555944531l-8.729468460939009 -4.8781533790432565l-3.004370574500059 9.53801643168422l9.949323966727452 1.0054613891655595l-1.0353233709464023 -9.946260881234323l-9.528954746951499 3.032988860934129l4.904336072354576 8.714785579083497l7.537661991365208 -6.571426915360795l-7.964830193479826 -6.046608966109196l-4.3037260559477915 9.026513282289905l9.712259079021589 2.381601054325164l0.3602868504963313 -9.993507561680206l-9.858545260217547 1.6760326226664337l3.642548491060067 9.312993100516934l8.379572303407649 -5.457359069363444l-8.106428858746412 -5.855408709738658l-5.519160594812424 8.338996721948618l9.28580901067756 3.71130044825522l1.7488716219682927 -9.845884828184513l-9.995898070623234 0.28639441633996765l2.30973266614583 9.729600968741671l9.058084295714238 -4.236874896870935l-5.987559261109581 -8.00931545730975l-6.6269737020703365 7.488873049536102l8.678289368040856 4.968630962805452l3.103354093929439 -9.506271265206532l-9.938334853115839 -1.1088283669454766l0.9318779749240866 9.956485496391354l9.559967254896604 -2.933773352749782l-4.813482591219938 -8.765294367220225l-7.6055634637153 6.492719337796677l7.901546541979534 6.129075154126539l4.397322398086673 -8.981289201850995l-9.686978067491488 -2.482429439065466l-0.4641479653528746 9.989222525615233l9.875434663306212 -1.5734643976811515l-3.5455449295033867 -9.35035353090314l-8.435847769470817 5.369960187032512l6.970726707984401 7.170004823052281l5.60554466829752 -8.28117557909028l-9.24672907087655 -3.80762412664466l-1.8511232053194377 9.82717369739275l9.998335032227514 -0.1824735140562482l-2.2084705549508827 -9.753084527877062l-9.101636406334205 4.142488953140585l7.139333109241166 7.00213701346188l6.7044610519022445 -7.419582333495994l-8.6261725432174 -5.05857166151101l-3.2020022806583333 9.473498899279972l9.926271853455848 1.2120755303570003l-0.8283318848950953 -9.965634264233568l-9.589946761276583 2.8342408358995828l4.722108989574648 8.8148560221128l7.672643117459518 -6.4133101899176115l-7.837409089443408 -6.210879065374711l-4.490443587874243 8.935094648861819l9.660650330252166 2.5829895850736104l0.5679589267348452 -9.98385810483814l-9.891256977021925 1.4707261521150308l3.448158254347704 9.386703609519893l8.491211700617947 -5.281981054044862l-6.895819282494231 -7.242076803181581l-5.6913230350619415 8.22245961440817l9.206649976439563 3.9035363724865424l1.9531747656875174 -9.807400692063188l-9.999691624468433 0.07853289461026551l2.1069698076310477 9.775514218174468l9.144205040295493 -4.047655393068251l-5.819763748278353 -8.132056930090018l-6.781223951683717 7.3494898950274825l8.573123617948347 5.147965756624284l3.3003044752641086 -9.439702875120155l-9.913136271214027 -1.315191723035412l0.7246962895246376 9.973706196191525l9.618890026658063 -2.734402065362378l-6.011583803135098 -7.991299029437188l-7.738893704310758 6.333208052273296l7.772424766239208 6.292011860538043l4.583079563107131 -8.88793461487143l-9.633278712145344 -2.6832706263303607l-0.6717085173563747 9.977414879001019l9.906010491685729 -1.3678289873417118l-3.3503989887031054 -9.422039408562098l-8.545658114503492 5.193431176979301l6.820166729753972 7.313366241229616l5.77648642633052 -8.162855172451565l-9.16557605811023 -3.9990268219901375l-2.055015275898612 9.78656794876648l9.999967700759516 0.025416210701922952l-2.005241391842174 -9.79688761599534l-9.18578559784746 3.952384463887361l5.734918160624611 8.1921128953975l6.857254106805217 -7.2786033079638965l-8.519148324431452 -5.236803588672845l-3.3982500557102933 9.404886844554005l9.898929525754758 1.4181658027680237l-0.6209823871494237 -9.980700420053205l-9.64679392357861 2.6342678292092527l4.5378409733583025 8.911116613562553l7.804308065566687 -6.252421580294371l-7.706600594243244 -6.372464772818262l-4.675220314011781 8.839814195753867l9.604866170809231 2.7832617269750966l0.7753855265630045 -9.969893544326169l-9.919693613107674 1.2647840219068371l4.748558231865353 8.800636040570238l8.599181127924174 -5.1043201240863345l-6.743777224394694 -7.383865434021358l-5.861025639779209 8.102368693774105l9.123511754127806 4.0940851569418735l2.156633731583814 -9.764677718583183l-9.999163231269359 -0.1293625696673156l1.903296299840823 9.817202411838732l9.226373586005991 -3.856686460091221l-5.649452886806904 -8.251283662543008l-6.932543301833874 7.206930231950237l8.464252494963125 5.325075558291217l3.4958284384943266 -9.369054569625172l-9.883653152186888 -1.5209866426981564l0.5172013845676131 9.986616180058256l9.673655436884674 -2.5338489474377877l-4.444966469854314 -8.957805148688537l-7.868879132883265 6.170959503357182l7.639943686081624 6.452229108881793l4.7668558843260715 -8.79073859115751l-9.575415776358906 -2.88295208247674l-0.8789787515430634 9.96129491353086l9.93230486275907 -1.16160239032663l-3.1538049785472673 -9.489653005104584l-8.651774957454668 5.0146575242543l6.666659020678828 7.453566763771665l5.944931540529474 -8.04100671423783l-9.08046160974759 -4.188701105820301l-2.258019152368295 9.741732366860525l9.997278302924853 0.23329495036966877l-3.3786777545417293 -9.411935859904956l-9.26596461903898 3.760571722320663l5.563377161769174 8.3095628378336l7.007083401401203 -7.1344784116155076l-8.408442061308216 -5.4127721272581635l-3.5930290797911653 9.332209922187513l9.867308801197847 1.623643132527439l-0.41336449582788204 -9.991452836979663l-9.699471664057395 2.433156270802945l4.351611665822315 9.003525748831906l7.9325999290385205 -6.088830623840513l-7.572461244361701 -6.531296249799119l-4.8579763723751235 8.74071310394324l9.544930711054597 2.9823309208011732l0.9824769985381707 -9.951619915739519l-9.943842877932255 1.0582952418847833l3.0549914769874724 9.521923496622618l8.703433920072566 -4.92445306596888l-6.58882045160826 -7.522462698908431l-6.028195062135309 7.978775864306973l9.036430276749796 4.282864444905958l2.359160583057803 -9.717734372956814l-9.994313119401793 -0.3372021224031603l1.6988001721012667 9.854647531762296l9.304554418940242 -3.6640506362466665l-5.476700286417611 -8.366944123917241l-7.080866351082177 7.061255675735881l8.35172305405907 5.499883819527305l3.689841476592604 -9.294356883486717l-9.84989823887529 -1.7261241797163493l1.9327682434736826 9.81144265218014l9.724239815526223 -2.332200679644554l-4.257786648708851 -9.048273473656543l-7.995463568686466 6.00604381617446l7.504160560893802 6.609657651976086l4.948571932141245 -8.689743139611426l-9.513414268957813 -3.081387503575278l-1.0858690840527927 9.940869596383324l9.954306411887842 -0.9548737394276849l-2.95584786854624 -9.553165097391055l-8.754152433772418 4.833716496266249l6.5102699280239005 7.590545794886404l6.110807207562965 -7.915682868331482l-8.991422512936904 -4.3765649993860976l-2.460047094822411 9.692686329973535l9.990268001102871 0.4410728580858845l-1.5962712331772433 -9.871773809712762l-9.342138815891758 3.567133631448163l5.389431626615671 8.423421320463245l7.153884178265544 -6.987269936388741l-8.294101601983877 -5.586401222251091l-3.786255167842154 9.255499543730126l9.831423346516265 1.8284187106827934l-0.2055679450508249 -9.99788686773198l-9.74795721497036 2.2309930827116653l4.163501556769315 9.092043487950303l8.057463259101102 -5.922608025881491l-7.435049015903296 -6.687304848077096l-5.038632774327825 8.637834205717859l9.480869855575408 3.1801111272472133l9.999939994000728 -0.034642695979198716l-0.4433664218987529 -9.99016647588681l-9.692121294532436 2.462272286338555l4.378629143566238 8.990417499933605l7.914279734666333 -6.112624336686315l-7.592040228944455 -6.508527111573633l-4.8317065820563725 8.75526193239889l9.553843452056011 2.9536545657213367l0.9525883949230427 -9.954525370396016l-9.940620039524891 1.0881512899391237l3.0835715212627974 9.512706590306307l8.68860681265097 -4.950566801403163l-6.611380290261593 -7.502642911503954l-6.00420805159639 7.996842231352641l9.04925074199771 4.255709225082686l2.3299681177550196 -9.724774988155003l-9.995280656176309 -0.3071882228662285l1.7283854834369141 9.849501694027193l9.29350952115373 -3.691975186837656l-5.50180107128036 -8.350460165287796l-7.059629857467133 7.082487294415612l8.368201249591516 5.474779250922815l3.6619143910391627 -9.305395370036692l-9.855037284250253 -1.696537687773954l0.3394966176355984 9.994235440823575l9.717192498479026 -2.3613915277867283l-4.2849389244816125 -9.035446774424736l-7.977391695155722 6.030026678387129l7.52397516846627 6.5870932636712345l4.922454793373426 -8.704564251425511l-9.522624613596886 -3.0528053440268317l-2.6610117851614095 9.63945103619662l9.97893982520233 0.6486601305698447l-1.3907069978087128 -9.902824548897444l-9.414275265306028 3.3721537967665585l5.213156735821645 8.53363913273566l7.297592988923277 -6.837041506969065l-8.17617636532342 -5.757615829762065l-3.97784480599588 9.174788864023608l9.791288671691783 2.0324040315843144l0.0023174538433395537 -9.99999973147038l-9.792229620472936 2.0278656414892167l3.9735919488994638 9.176631572839861l8.17884408882019 -5.753825629159353l-7.294423299536955 -6.84042313948285l-5.21711143872181 8.531221966163935l9.412711291987982 3.376516864119287l1.3952967160692071 -9.90217890537868l-9.979239401320427 0.6440349145301888l2.656543702886891 9.640683355170005l8.90061098915345 -4.558412445112975l-6.270431887038969 -7.7898449246441945l-6.354646477985004 7.721299640593724l8.850589794090455 4.6547889637170305l2.761068248510827 -9.611269537738776l-9.971657991665934 -0.7523542365434757l1.2876939135926797 9.916745654946302l9.448819523069998 -3.2741120354152864l-5.124169552200037 -8.587367838884397l-7.368268443952579 6.760815049818523l8.958825392339131 4.4429098111012335l4.073000050695665 -9.132944245260294l-9.769633225975689 -2.134072779900407l-0.10626539372902655 9.99943536736428l9.812779842679824 -1.925967746120518l-3.8779879536379926 -9.217440503276308l-8.238212112327934 5.6684972604997625l7.222924323462655 6.915877689601773l5.305509975430137 -8.476530180481358l-9.37710450665158 -3.4741777547118406l-1.4981525682314563 9.887140075992729l9.98539486682872 -0.540267853486237l-2.556187135784448 -9.667776752017502l-8.947513928345915 4.465646034120468l6.189119178606029 7.854603987026401l6.4345645704726 -7.654827156012001l-8.80172598725459 -4.746537648148091l-2.8608263648318433 9.582049494251375l9.96329867135185 0.8559670469349029l-1.184541687704645 -9.929595207766017l-9.482342789328909 3.1757164901266064l5.03462867681085 8.640168637627037l7.438147721272075 -6.683858053290407l-8.054717319561375 -5.926341949462418l-4.167715187671755 9.090112766872046l9.746922123253247 2.235510931137763l0.21020185111533757 -9.997790514998186l-9.832269745675834 1.823861740447354l3.781964922670764 9.257253443850823l8.296689956426171 -5.5825563827817355l-8.19342930758974 -5.733037256248168l-5.393335225644665 8.420922463947784l9.340484478970994 3.5714632432802573l1.6008465376271153 -9.87103289240631l-9.990471361222284 0.4364424138387452l2.455554360067311 9.69382549795252l8.993450044572828 -4.372397088071141l-6.107137705351224 -7.91851432074713l-6.513787376554395 7.587527529639719l8.751911110558527 4.837773445799444l2.960275354768465 -9.551794063104085l-9.953862767525827 -0.9594873658694438l1.0812614662508575 9.941371818899093l9.514841441728667 -3.0769777930239863l-4.944543784986846 -8.692035823577118l-7.50722327008154 6.606178832967378l7.992678964088703 6.009748994509998l4.261979982486933 -9.046299057011142l-9.723157817571002 -2.3367075244043574l-0.3141155951559451 9.995065352106499l9.850697223480925 -1.7215586575267183l-3.685533231759398 -9.296066092579007l-8.354271302295718 5.496012282340551l7.077592763780226 7.06453683337314l5.480577699414384 -8.364404825250972l-9.302855165920644 -3.668362817648167l-1.7033675276667972 9.853859095079972l9.994468335960882 -0.33256981443802813l-2.354656249602723 -9.718826778279713l-9.0384143742105 4.2786756829730646l7.243659761218581 6.894156457733084l6.592306335815858 -7.519408033533099l-8.701150546745133 -4.928486498193625l-3.059404472367331 9.520506513545314l9.943351299783764 1.0629040074665785l-0.9778644091681241 -9.952074215824673l-9.546311968629752 2.9779066133101533l4.85392461084445 8.742963792229645l7.575487626427586 -6.52778578247192l-7.929776960272966 -6.092506656567888l-4.355784249365658 9.001507849964808l9.698342876779275 2.437651624909662l0.4179953974588046 -9.9912601731565l-9.86806028491532 1.619069551710794l3.5887033008232248 9.333874255562932l8.41094992798845 -5.40887431069267l-7.00377588396319 -7.137725363672633l-5.567227969760138 8.306983371400259l9.26422063353321 3.764866007339112l1.8057044604523984 -9.835620539727136l-9.997385359151702 0.22866127923024465l2.2535037069286625 9.74277789148756l9.082402058641566 -4.184491945885838l-5.9412039696906325 -8.04376127135386l-6.670112963896563 7.450476028339331l8.649449780743439 5.018667003338365l3.1582030062388684 -9.488190226348951l-9.931765403941546 -1.1662057970486395l0.874361689017912 9.961701242096039l9.576750969486678 -2.8785136561142064l-6.130889037336919 -7.900139214714004l-7.642933414010158 6.448687372559397l7.866018104985605 6.174605993262944l4.4491178522947115 -8.955743985643656l-9.672479982254682 -2.5383323251462695l-0.5218300332994517 9.986375389316521l9.88435705381468 -1.5164054974524308l-3.4914855928133806 -9.370673847444301l-8.466719709099586 5.321151883525279l6.9292022116533545 7.21014262757806l5.653276673693291 -8.24866430706665l-9.224585056460272 -3.8609623847079693l-1.9078462779740988 9.816319197113568l9.999222115596016 -0.12472803604459703l-2.1521076620757573 -9.765676249540265l-9.125408344779991 4.089856053826308l5.8572696372425614 8.105084354689739l6.747198853406983 -7.380738962501213l-8.59681439907594 -5.108305216785757l-3.256660280714692 9.454848693449055l9.919106331912298 1.2693815723482742l-0.7707644897791027 -9.970251857465565l-9.606155155215422 2.7788096613348996l4.671122639671287 8.841980167651947l7.709553344979595 -6.368892150202728l-7.801409287685081 -6.256038133357322l-4.541970706118426 8.909012409058711l9.645571928610412 2.638738746068434l0.6256082828338727 -9.980411528411523l-9.899585769232834 1.4135775881085402l4.880157370338842 8.7283482996915l8.5215746194295 -5.232854479678846l-6.853879804903448 -7.281780800047244l-5.738714513227402 8.189453933912393l9.183952717521223 3.9566415660676846l2.0097819433052515 -9.79595715284444l-9.99997840682324 0.020781315380105594l2.0504790713862393 9.787519378157421l9.16742858558466 -3.994778232668899l-5.772702397950638 -8.165531643726263l-6.823555674836944 7.310204371452315l8.543250089254975 5.197391452685171l3.354765657001188 -9.42048551756253l-9.905375451571128 -1.3724201847146094l0.6670840056395182 9.977725137997135l9.634521348548839 -2.678805402480118l-4.578959595294197 -8.890057875214492l-7.775340220724109 6.288408737668851l7.7359574896724395 6.336794277707057l4.634332777628452 -8.861318169787074l-9.617621623394237 -2.7388600382676707l-0.7293189323108801 9.973369234866066l9.913744785632044 -1.3105969347413657l-3.295928905748213 -9.44123152180124l-8.575508731634852 5.143991640122914l6.7778168026706425 7.352632140222678l5.823532256382951 -8.129358649910047l-9.142328007240488 -4.051893212811286l-2.1115004417949685 9.774536607138963l9.99965415111238 0.08316765080791114l-3.5196094745249633 -9.36014685498225l-9.208458240561514 3.8992687560406445l5.687511389721741 8.225096606836024l6.899175177455676 -7.238879876802725l-8.488762639168133 -5.285916084829882l-3.452508534329066 9.385104411799848l9.890574246607311 1.475310500317884l-0.5633314397863055 -9.984120276165962l-9.661846484379975 2.578511685502767l4.486301771771693 8.93717496822112l7.840286932647639 -6.20724583158704l-7.6696697833369445 -6.416865700212857l-4.726194086647878 8.8126664214263l9.588632086774352 2.83868538314505l0.8329507752837978 -9.96524926963466l-9.926832573060825 1.2074746649179098l3.197611057556463 9.47498198017245l8.628516217869075 -5.054572966925132l-6.701021423937101 -7.422688992267963l-5.907720738184874 8.068384948651147l9.099715423373102 4.146707032529024l2.2129907822583044 -9.752059874592637l-9.998249383500868 -0.18710763032147454l1.8465682023183487 9.828030620332171l9.248492876254174 -3.803337944211083l-5.60170581786406 -8.283772807731268l-6.974049190203322 7.1667731855155274l8.433357936452863 5.373869547697217l3.549878351098841 -9.348709199263809l-9.874704316363973 -1.5780414013525534l2.079861214856865 9.781317770471121l9.688127610093268 -2.4779393476331286l-4.393159181238141 -8.98332635543778l-7.904386462937958 6.125412202009198l7.602553331391877 6.4962437487629945l4.817544707109654 -8.763062421037509l-9.55860645121302 -2.9382039940801983l-0.9364926138213842 9.956052510119559l9.938847717319259 -1.1042219215075189l-3.0989476917348857 -9.507708620056203l-8.68059135041211 4.964608122213723l6.6235019668218795 7.491943786195055l5.991270861652913 -8.006539418644534l-9.056119570418712 -4.241072780120521l-2.3142419981639177 9.728529383927166l9.99576425578076 0.29102739193368216l-1.7443079575140747 -9.846694356450447l-9.287528166723 3.7069961629770987l5.515294954092406 8.341553906159383l7.048169622573903 -7.093892089073984l-8.377041967860283 -5.461242337482152l-3.6468645860220548 9.311303812636455l9.857767375665267 1.6806017872385801l-0.3556549134201839 -9.993673477883899l-9.713361885883597 2.3770992562078392l4.299541888209379 9.028507049979687l7.967631885324991 -6.042916691462206l-7.534615386100557 -6.574919846168222l-4.908374768129144 8.712511528577346l9.52754796112811 3.03740511759686l-0.5933106703968762 -9.982383605551993l-9.94978892011181 1.0008498614778636l2.9999494693462916 9.53940790517781l8.731728502289302 -4.87410682713342l-6.545266807684264 -7.560389038682245l-6.074173598784558 7.9438287426044525l9.01154515912403 4.334980258901794l2.41524314881905 -9.703947677728l-9.992199036482353 -0.3949157066022567l1.6418592316405534 9.864294108727531l9.325559894012521 -3.6102538225428358l-5.42828813552637 -8.39843365858799l-7.121528465489489 7.020244462639668l8.319820818608273 5.548025013124253l3.743456759258162 -9.272892293754111l-9.839765254631086 -1.7829805758209538l0.2517533933791899 9.996830509162494l9.737546585063125 -2.2760023074956335l-4.205460008495178 -9.072712169850188l-8.030016365829228 5.95976821399245l7.465863288492718 6.652885491088561l4.99867445507072 -8.661019206318818l-9.4954599725425 -3.13627803452487l-1.143261535701667 9.93443269950454l9.959654999187608 -0.8973696546893507l-2.9006270876363804 -9.570076410273332l-8.781922147879431 4.783078860795074l6.466324400218681 7.628017353882759l6.156419991530592 -7.880259696728431l-8.96599700597382 -4.42841932170707l-0.9065909067029909 9.958819856181929l9.987554110845156 0.49876134868293376l-1.5392330947873916 -9.880827975423479l-9.36258394860722 3.5131213763948512l5.340694763681389 8.454405918879587l7.194117792165665 -6.9458382642014795l-8.261700671723947 -5.634208197327827l-3.839644433546922 9.23347879317065l9.82069989847931 1.8851667045671194l-0.14782467014362072 -9.998907333648859l-9.76067909435595 2.174659425519939l4.1109237081061965 9.115936938468277l8.09153316350018 -5.875975754202595l-7.3963044675712535 -6.7301322589519375l-5.088434010608287 8.608591018261052l9.462345952721464 3.234812061158384l1.2464662766435741 -9.92201198453168l-9.968444888468197 0.7937924826881906l2.8009912788778775 9.599710821459679l8.831166863511783 -4.6915340592189505l-6.386683274541207 -7.694821424223931l-6.238001152763041 7.815839149965087l8.919480032670453 4.52137987198522l2.6164516278900325 -9.651641356728481l-9.981829980776274 -0.6025530971424196l1.4364406362143323 9.896294169972524l9.398596329875573 -3.4156093201725257l-5.252524303452882 -8.509464638955663l-7.265929758968016 6.870681533715778l8.202687807375542 5.7197825775751845l2.386091831344822 -9.711156767985445l-9.800573367315605 -1.9871491317623977l0.04387997372408868 9.999903726931873l9.782756914180464 -2.073081560878474l-4.015943202155487 -9.158176685184728l-8.152175631144752 5.791548366280788l7.32594643950949 6.806651802864476l5.177643735779622 -8.555232629528085l-9.428209479797992 -3.3329965504103427l-1.349536330762782 9.908519147276818l9.97615763816273 -0.6901295374981554l-2.7010528092108332 -9.628307936592716l-8.879457328052197 4.599482314271915l6.306352036267883 7.760794031196802l6.31890826723547 -7.750574063271909l-8.87199926560209 -4.613851864890764l-2.7166372147383395 9.623922393883833l9.975027264796164 0.7062797367709015l-1.333492963152997 -9.910691021176143l-9.433593146502345 3.3177281905339955l5.163786282093498 8.563603869450233l7.33695660625971 -6.794782392237591l-8.142788602193814 -5.804738907132907l-4.030764755905031 9.15166299000099l9.779387835910834 2.088916837703031l0.06006946414280473 -9.999819581346335l-9.803777658919453 1.9712796895600122l3.920528753754695 9.199426845786789l8.211937216045527 -5.706495173022269l-7.254796806839023 -6.882435854512435l-3.8118994861509132 9.244967404349374l9.393054242386187 3.430820892962913l1.452460560832106 -9.893955645707498l-9.982792414870602 0.5863920204112321l2.6008224774793076 9.655864665613246l8.926788323478045 -4.506933572598562l-6.225339365584804 -7.825928046136137l-6.399132592535523 7.684471488863083l8.823559835299557 4.705825308369239l2.816529255550363 -9.595163518806176l-9.967146697971803 -0.8099300593938898l1.2304011996066984 9.92401697338363l9.467570616909068 -3.219488564017588l-5.07449028818367 -8.616817760352694l-7.407190659239932 6.718149041043128l8.082009528583015 5.889068006050989l4.125676752481872 -9.10926952801544l-9.757145593466044 -2.1904588258869806l-0.16401241120812923 9.99865490598459l9.823739057177876 -1.8692648117583315l-3.8246906729050947 -9.23968296299136l-8.270811460668796 5.620825364843647l7.182863257628227 6.957476225055635l5.3543751972756395 -8.445748412473549l-9.356884039182663 -3.5282745184138857l-1.5552278453813673 9.878323053481822l9.9883485016715 -0.48259114077727366l-2.500311114064491 -9.682378030880924l-8.973154735442064 4.41389783454643l6.143654016310196 7.8902164309907l5.151929491912684 -8.57074223800718l-8.774166975881963 -4.797290264236923l-2.9161169564989065 9.565367839033666l9.958189131837266 0.9134928650833276l-1.1271764851484247 -9.936270586660191l-9.500525069662654 3.1209010558989903l4.984645970595515 8.669100561639938l7.476624328773209 -6.640789760743564l-8.020357154021513 -5.972760762154796l-4.220142949357849 9.065891764574802l9.733849043365122 2.2917641242021167l0.26793763592430975 -9.996409826695547l-9.842638952028302 1.767047950683627l3.7284393153835262 9.278940686926628l8.328792003362352 -5.5345481987897935l-7.110153564651519 -7.0317648060123075l-5.441877836895131 8.389634414461073l9.319702778556088 3.6253468964188658l1.6578270798991182 -9.861623059778404l-9.992825298202867 0.3787381147927651l2.3995295797144323 9.707845167496002l9.018551553824993 -4.320385153085406l-6.061304814948524 -7.953652239083743l-6.557498275799414 7.549782537456804l8.723826024491139 4.888236849254662l3.015389556642206 -9.534538574136302l-9.94815553430171 -1.0169569633677953l1.0238299737171888 9.947450536942531l9.532452943872109 -3.0219763190442075l-4.89426303745022 -8.720446623897685l-6.376027689539447 7.703653088128142l7.957838140352153 6.055808132029663l4.314153138994941 -9.021534386860147l-9.709500702915095 -2.3928217861118l-0.3718339086587662 9.993084586071086l9.860475301243968 -1.664640151371368l-3.631785081623411 -9.317195775602102l-8.385872579042875 5.447672997533609l7.036675584549478 7.105293570135245l5.528792454801491 -8.332613875113266l-9.281514478124876 -3.7220275378291205l-1.7602471780325533 9.843857469113845l9.996222320724783 -0.2748441642888547l-2.298488764370485 -9.732263323608883l-9.062973873276924 4.226405632721483l5.978300659736739 8.016228615863652l6.635622521570895 -7.481210714264178l-8.672542420714912 -4.978655236195847l-3.114336329086682 9.502679055368064l9.937046989544786 1.1203111744416825l-0.9203728324127415 -9.957555616181942l-9.563350789573313 2.9227250427584712l4.803351255069046 8.770850398930918l7.61306059419459 -6.4839269265717l-7.894459243062396 -6.138201141998093l-4.40769716312896 8.976202187904688l9.684103203074114 2.4936208918377476l0.4756900029073148 -9.988679543419842l-9.877246177519458 1.5620524794888513l3.5347384155909403 9.354444095366953l7.456648687036145 -6.663211714940637l-6.962437256979887 -7.178054572279205l-5.615109659442008 8.274692955780356l9.242323264323044 3.818305995824987l1.8624770727854276 -9.825028201147752l-9.998539202172225 0.1709205155188037l2.1971995859905853 9.755629860717491l9.106416893747369 -4.131969428404877l-5.894650519682787 -8.077938799644588l-6.7130297556343175 7.411830509392956l8.620321705999356 5.068535654908263l3.2129465821460506 -9.469792725306927l-9.924864697899485 -1.2235443303732554l0.8168162402889549 9.966584732474821l9.5932152681018 -2.8231579516312104l-4.711920446918011 -8.820306440363394l-7.680048447471975 6.404440322501514l7.8302273105543785 6.219930889089392l4.500764913867189 -8.929900066075884l-9.657659288167174 -2.5941505495399255l-0.5794946965072588 9.983195174728378l9.892949768678958 -1.4592960201394842l-3.437309803656535 -9.390681621356709l-8.49730925592738 5.272166102194702l6.887446603759825 7.250039950259395l5.700820123817433 -8.215877915103059l-9.202133371954343 -3.914171867044703l-1.9645057177139167 9.805137290475301l9.999775692194737 -0.06697839794489889l-2.0956729893695263 -9.777942253952363l-8.369475702438828 5.472830754398138l5.810363433596455 8.138776122337143l6.789711613756657 -7.3416494197161155l-8.567169523049994 -5.157868393369817l-3.311209660496604 9.435883137482891l9.911609975722449 1.3266452763113583l-0.7131713871458423 -9.974536910180667l-9.622043152453516 2.723285804377203l4.619980492546424 8.868809404226168l7.74620643367399 -6.324261687098952l-7.765149283404879 -6.300988542001697l-4.5933463347806045 8.882633024546132l9.630171815589573 2.694399896493503l0.6832367728500023 -9.97663207260975l-9.907584377872073 1.356381876664995l3.339509773461764 9.425904437928137l8.55165331584936 -5.183553372496768l-6.811711727998857 -7.32124192570105l-5.785914586489778 8.15617510833631l9.160949143734666 4.009614792708537l2.0663220881202236 -9.784186886407397l-9.999931657183481 -0.036970956974912296l1.993919944956306 9.799198092349467l9.190346367139465 -3.941767833346663l-5.725448509112687 -8.198734010168845l-6.865659810085313 7.270675028646192l8.51309161522208 5.246643798737962l3.409114946328568 -9.400953955993996l-9.89728425525171 -1.4296028716908058l0.6094494723204562 9.981411290027495l9.093967754630377 -4.159296872999442l-4.5275413265193585 -8.916354049535007l-7.811527404104252 6.243399684060622l7.699232193615383 6.381365342056232l4.685431421990524 -8.83440617075216l-9.601643755498161 -2.794358100262595l-0.7869050220930384 9.968990946239483l9.921148423757169 -1.2533211694456585l-3.241348892781758 -9.460108739082361l-8.60507332749543 5.094380534316879l6.735240813223471 7.391652804879896l5.870383852583081 -8.095590986662543l-9.118775029822787 -4.104624459738115l-2.167915182243862 9.762179252738425l9.99900708028567 0.14091631700066382l-1.8919514476687216 -9.819395079110741l-9.230823751067984 3.8460229948245477l5.639914921707463 8.257805984394492l6.9408661380434715 -7.198915005315836l-8.458093825900004 -5.3348522783927415l-3.5066518604934194 9.365008955110403l9.881889084451954 1.5324059914361143l-0.5056617034767492 -9.987207129204691l-9.676576790992577 2.522669539996034l4.434612937344163 8.962935238856732l7.876004300510068 -6.161863050924364l-7.632483163852225 -6.461052604143719l-4.777010225249546 8.785224715843146l9.572078190490386 2.8940143598707815l0.8904882423712539 -9.960272621278925l-9.61382188882039 2.752167998149451l3.142837768383334 9.493290828876109l8.65756351857012 -5.004657223219565l-6.658042122492783 -7.46126497955352l-5.954218794776949 8.034132096494615l9.075615587339522 4.199190601870784l2.269274022450457 -9.739116767501637l-9.997002061406395 -0.2448464503240484l1.789778515705322 9.838531031852249l9.270303699008704 -3.749862574567972l-5.553771913706335 -8.315985661996217l-7.015322471216839 7.126377103749145l8.402182097865886 5.422484300973311l3.603809863647002 -9.328052018866565l-9.86542612684724 -1.6350435271636892l0.40181929539451683 9.991923801443276l9.70227665255158 -2.421947100444704l-4.341205366391159 -9.008547938864321l-7.93963015584509 6.079660598125134l7.564909406676951 6.540041717662861l4.868072849016769 -8.735093974117609l-9.541478315271226 -2.9933579069681873l-0.9939752410073244 9.95047803978605l9.945059078793365 -1.0468046232748889l-3.0439870448788535 -9.525447121821092l-8.70911821724966 4.914393134250669l6.580123997505705 7.530070927783452l6.0374103542928115 -7.971805078768418l-9.031475479875274 -4.293303000768953l-2.3703876564179085 9.715001922712194l9.917340035414218 -1.2831081879445358l-1.687412189354821 -9.85660388284001l-9.308781944958723 3.6532969631841445l5.46702879328576 8.373266756373193l7.089020764231765 -7.0530691620237835l-8.345362472657422 -5.50953039740786l-3.7005784573883678 9.29008714064153l9.847897161341251 1.7375043883820669l-0.29793346875760196 -9.995560797083577l-9.726928135313864 2.320962957575918l4.247328706808617 9.053187220880801l8.00239809502216 -5.996801208042976l-7.496518223766968 -6.618324147450752l-4.958609453527009 8.684019362449199l9.509847436307965 3.092378006995073l1.097354835721156 -9.939608260113644l-9.955403104280375 0.943371099453807l2.944807403576042 9.556574143271412l8.75973185279484 -4.823598020889748l-6.501494857699546 -7.5980632147479765l-6.1199495418727645 7.908616668225319l8.986359476986145 4.3869514871242075l2.4712451583198707 -9.689837324097892l-9.989751681035795 -0.45261611907058474l1.584863529803158 9.87361167921343l9.34625433115398 -3.5563365950631622l-5.379694933467286 -8.429643078020945l-7.161953053624566 6.978999101424054l8.287641089915075 5.595981161936775l3.796947185394168 -9.251118422727455l-9.997692246992814 -0.21482489245841394l0.19401544894142791 9.998117723130292l9.750528575565259 -2.21972802322387l-4.152993102432153 -9.096848261411804l-8.064301335656177 5.913293834043256l7.4273170051265645 6.695891434705148l5.048610255854069 -8.632006399701353l-9.477188971472927 -3.1910639603417446l-1.2006158558381763 9.927664456794961l9.96467139941037 -0.8398356397373085l-2.845309561323818 -9.586668529799038l-8.809398956152958 4.732281693996162l6.42216319934028 7.66523449354548l6.201827438750916 -7.8445736926844045l-8.940272453678537 -4.480125941756186l-2.571835630006319 9.663625690817604l9.984507102983791 0.5564332039573182l-1.4821436179382657 -9.889552583196313l-9.382716808518518 3.4589919472505395l5.291779771104781 8.485108535200139l7.234111458702026 -6.904174925584956l-8.22902418671865 -5.681827253129002l-3.8929056345485193 9.21115007588631l9.809648897972549 1.9418518219745686l-0.09007646480005779 -9.999594303294966l-9.773075423161908 2.1182532363220186l4.058208746688621 9.139526342666779l8.125333188796994 -5.829147499509178l-7.357313228288376 -6.772735197898474l-5.138065530967806 8.579060706130976l9.853070389886923 1.7079238542550867l1.303747143496377 -9.914647920416792l-9.972862962698395 0.7362094316419588l2.745504269354271 9.615727029557227l8.858114160548784 -4.640454020748953l-6.342137594604473 -7.731577505988321l-6.283035197617078 7.77968307230474l8.893219389882393 4.572816296705982l2.6721482021811713 -9.63636985516745l-9.978183649744315 -0.6601901634947405l1.3792635531527364 9.904424872295438l9.418165437101997 -3.3612735383151033l-5.203292805864706 -8.539657134594842l-7.305488182392943 6.828604719627361l8.169518096913354 5.767059394891405l3.988443436068197 -9.170186418894902l-9.78893373302315 -2.043716313601639l-0.013872252547150283 9.999990378025835l9.794566241805839 -2.0165495617210647l-3.9629858814946717 -9.181216853068765l-8.185487059652157 5.744371296866792l7.286514457505408 6.848847133683497l5.226965612784991 -8.525188002781125l-9.408803510474065 -3.3873908102388923l-1.4067375548519891 9.900560057480034l9.979976909005678 -0.6325036724901144l-2.6454023121209573 -9.643746502631904l-8.905872202064451 4.54812492358067l6.261426690653011 7.797085083387129l6.363564043572789 -7.713951818837574l-9.486728831885632 -3.1625900888780825l-2.7721720355767503 9.608072762274766l9.970782004597643 0.7638757862321589l-1.2762344521444733 -9.91822693948669l-9.452596386505444 3.2631919272124073l5.114243599199636 8.59328298196013l7.376075512090638 -6.752296649284364l-8.109129250425378 -5.851668377471126l-4.083550266623013 9.128231878078202l9.767160825552514 2.145359971611367l0.11781947092912708 -9.999305904525071l-9.814998709308213 1.9146279890041606l3.867334796150069 9.221915287752697l8.244756448299544 -5.658974386602496l-7.21492834293368 -6.924219017790546l-5.315300895213756 8.470394110862838l9.37308390369625 3.485010492705907l1.5095759612836144 -9.885402390247686l-9.986012469635265 0.528729568200031l2.5450145061335694 9.670723921380947l8.952667920208269 -4.455304379105175l-6.1800392086967415 -7.861750147325401l-6.443405275079462 7.647387034868719l8.796235581922078 4.756704698352416l2.8718963221250156 -9.578737469779867l-9.962302967328004 -0.8674788684271583l1.1730674477154768 9.930957293388705l9.486005936295125 -3.1647577121437975l-5.024641773315116 -8.645980282758961l-7.4458658204863415 6.675258960018949l8.906911210500043 4.546089824043146l4.178215849451327 -9.085290986831062l-9.744332528230577 -2.246771812905684l-0.22175395833675088 9.997540956753415l9.83437061784024 -1.8124995312994163l-3.7712658262258674 -9.261617249052183l-8.303134950389676 5.572965996273208l7.1425626198055845 6.998842705916171l5.4030618331915985 -8.41468495112611l-9.336351489020206 -3.582253602618077l-1.6122512505947384 9.869176556580378l9.990968992415095 -0.4248983320749797l-2.4443516987891662 -9.696656370761342l-8.998496258472318 4.36200241703964l6.097983943054096 7.925565710424363l6.522550264898648 -7.5799959130510475l-8.746315317336208 -4.847882875001214l-2.9713102861254654 9.54836714750564l9.95274745413715 0.9709882152562315l-1.0697736875688972 -9.942614558424019l-9.518390476404575 3.0659815294112085l4.934497010129907 8.697743342788346l7.514851566393373 -6.59749997613301l-7.985729483332151 -6.018980363736005l-4.272429955470478 9.041368385128356l9.720451307767338 2.3479408794354755l0.32566448413656973 -9.994695725422163l-9.852679874171752 1.7101752240898884l3.6747893524476165 9.300318446974686l8.360616257837767 -5.486355419509276l-8.126664929686537 -5.827290718730525l-5.490238943716761 8.35806654322014l9.298610235564325 3.67910963237824l1.7147523282144634 -9.851884309759381l-9.994845941768459 0.32102118359161913l2.3434247672000645 9.721541048644157l9.043352264878854 -4.268229119120775l-6.015269760200822 -7.988524877097996l-6.600990461024234 7.511785735327323l8.695449970286038 4.9385372140192025l3.0704031854094556 -9.516965077115051l-9.942116497545364 -1.074392642024467l0.9663643331044562 9.953197474967709l9.549746507524672 -2.9668740522678623l-4.843819050229831 -8.748566568794603l-7.583025295561978 6.5190280998678904l7.922731896679737 6.1016652885366875l4.366182404382114 -8.996468819023608l-9.695519744646338 -2.448856239384624l-0.42953982028428295 9.990770517972582l9.869924499897396 -1.6076661240211374l-3.5779157995736535 -9.338014699665086l-8.417194159505328 5.399152015010262l6.995523709167663 7.145813322111984l5.576822806872913 -8.30054500504287l-9.259864221457 -3.7755681162151644l-1.8170681183963096 9.833527518297169l9.997642898771877 -0.217109347187656l-2.2422446170184984 -9.745375266117337l-9.087231092515363 4.173994618015459l7.163547559335638 6.977362421799259l6.67871738760655 -7.442763872143328l-8.643645037022937 -5.028657919758388l-3.1691643125009787 9.48453465175652l9.930411246279885 1.1776809753740465l-0.8628505582124195 -9.962704899483498l-9.580070641481758 2.8674459897649895l4.752617691815235 8.798444469077749l7.650379641484825 -6.439851810496458l-7.858878219809531 -6.183690898339226l-4.459463065772188 8.950597140136166l9.669540532845811 2.5495069883512675l0.5333687425380147 -9.985765758542676l-9.886102631650392 1.504983307706499l3.48065563526868 9.374701933857544l8.472862541871319 -5.3113652055336855l-6.920866409936613 -7.218144369282946l-5.662804066847035 8.242126552079911l9.220117633395965 3.8716186313144005l1.9191875654150283 -9.814108165735506l-9.999359561200365 0.1131740510490032l2.140822181258228 9.768156447776251l9.130128000058331 -4.0793090962258365l-5.847900463795893 -8.11184690224956l-6.755722645868204 7.372937781651458l8.590906115325197 5.118235254232473l3.2675829957736395 -9.451079375697306l-9.917632965150787 -1.2808420544916475l0.7592435480661862 9.971135804647325l9.609359601603746 -2.7677080855946308l-6.039231744301333 -7.970425329844266l-7.716907326192972 6.359979663406891l7.794175352425935 6.265048329872329l4.552261860205641 -8.903758305126946l-9.642516479547595 -2.649882250526059l-0.6371400316711384 9.979681987921364l9.901212521303894 -1.402137870530212l-3.3830193689726618 -9.410376185315645l-8.527615389692736 5.22300447687685l6.845461276989937 7.2896954603900515l5.748173432940344 -8.182817496732945l-9.179374766195892 -3.967250798944544l-2.0210996347612094 9.793628350431117l9.999995743560088 -0.009226525896511007l-2.039168419113154 -9.789882132001976l-9.172038352285535 3.984182784989067l5.763263435321367 8.172196435175048l6.831997915011626 -7.3023150089048325l-8.537238903893154 -5.207259538169114l-3.3656486006037882 9.416602863944819l9.903783034914307 1.3838647323143873l-0.6555544979136924 -9.978489279458346l-9.637610223074187 2.6676711169287595l4.568684253957974 8.89534283699265l7.782601161042285 -6.279420289178235l-7.728630285992568 -6.345728792064662l-4.6445687603154955 8.855957375162856l9.614450504833801 2.749971179867358l0.7408424746845642 -9.972519863490032l-9.915252536159874 1.2991409254484956l4.779017513544877 8.784132945557651l8.581446786654602 -5.134079376851844l-6.769316458223783 -7.360458863985357l-5.832921680572204 8.122624247637628l9.137640022324327 4.06245428557869l2.122793314333629 -9.77209028532895l-9.999551377108409 -0.094721996227561l1.937294314773145 9.810549971227283l9.212957620576919 -3.8886259631717817l-5.678003657836283 -8.231662922010218l-6.907534953118168 7.230903185042017l8.482649201733434 5.295721152055792l3.463350530519647 -9.381108841856024l-9.888862952123645 -1.4867378767343093l0.551794611867697 9.984764529337372l9.664819453274234 -2.5673458932547306l-4.475972049429529 -8.942352834278326l-7.847454047490238 6.198182392647789l7.6622501029768095 6.42572356699476l4.7363737918863915 -8.807199515369895l-9.585345641371282 -2.849762961273198l-0.8444648660183728 9.964280159151516l9.928221159125554 -1.196003601788739l-3.186660770225735 -9.478670430788505l-8.634350916009236 5.044599514253879l6.692440181460993 7.43042693373445l5.917039652276901 -8.061553308971096l-9.094917911425982 -4.157218804011024l-2.2242576156291474 9.749496297723065l9.99802650986131 0.19866028317324008l-3.4112629637052856 -9.400174732017094l-9.252881383403933 3.7926489561593932l5.592130344079695 8.29023993710816l6.98232559803868 -7.158710026462435l-8.427142907532323 -5.38361053717927l-3.5606782283462914 9.344601144734895l9.87287432896726 1.5894503718012993l-0.4479751016951168 -9.989960876212741l-9.690984352112503 2.466743255207282l4.382776194067437 8.988396566280093l7.91145897786291 -6.116274751970544l-7.595041976084497 -6.505024010833051l-4.827667034932327 8.757489994275057l9.555205034083937 2.94924681174991l0.947996008762615 -9.954963765246468l-9.940116988877321 1.0927370440469442l3.087959655288908 9.511283045273546l8.6863220612048 -4.9545745578229825l-6.614840753562053 -7.49959210924265l-6.000518258693123 7.999611279749188l9.051213049835434 4.251534114468416l2.3254815749300835 -9.725848829005143l-9.995421306588213 -0.30257710389648995l1.7329291341235773 9.848703296175884l9.291805326807287 -3.696262134740411l-5.505652773086255 -8.347921150933784l-7.056361768275475 7.085743333992575l8.370726019018399 5.470918196658435l3.657621177346429 -9.307083717417981l-9.855818893094664 -1.6919911189241783l1.966746128196383 9.804688147372385l9.716102092342755 -2.3658740733971353l-4.28910675814305 -9.033469057745846l-7.974609036112211 6.033706217670652l7.527013167484887 6.583621554775848l4.918438624768582 -8.706834183237014l-9.52403193981289 -3.048411981577282l-1.0514247158672099 9.944571688457152l9.950938740012159 -0.9893524106834756l-2.9889248710965366 -9.542867918762187l-8.737354606502983 4.864014235199267l6.536526559527488 7.567946916871956l6.083348479546144 -7.936804853113348l-9.00653016007832 -4.345390025716862l-2.426454254488893 9.701150434400693l9.991736048794165 0.406461229672832l-1.630460140478727 -9.866184659244428l-9.329725244863116 3.599475913985795l5.418580289183597 8.404700330747731l7.129635463855573 -7.012010992043076l-8.313404632314437 -5.557634696470509l-3.754168902356765 9.26856061384816l9.837698487429735 1.7943490380699954l-0.24020208703915666 -9.997114731630424l-9.7401699598694 2.264749247236381l4.194973863100448 9.077565438370803l8.036897398563198 -5.950485711685063l-7.458171028025928 -6.661507705971275l-5.008678753077626 8.65523755586574l9.491829726964573 3.14724775547011" stroke="rgba(46.85%,100%,84.04%,1)" stroke-width="0.009495223206840089px" stroke-linecap="square" fill="none"></path></svg>